<?xml version="1.0" standalone="no"?>
<!DOCTYPE svg PUBLIC "-//W3C//DTD SVG 20010904//EN"
 "http://www.w3.org/TR/2001/REC-SVG-20010904/DTD/svg10.dtd">
<svg version="1.0" xmlns="http://www.w3.org/2000/svg"
 width="225.000000pt" height="225.000000pt" viewBox="0 0 225.000000 225.000000"
 preserveAspectRatio="xMidYMid meet">

<g transform="translate(0.000000,225.000000) scale(0.100000,-0.100000)"
fill="#000000" stroke="none">
<path d="M0 1125 l0 -1125 1125 0 1125 0 0 1125 0 1125 -1125 0 -1125 0 0
-1125z m1427 736 c-12 -102 -88 -210 -179 -255 -29 -14 -65 -26 -81 -26 -30 0
-30 0 -24 49 3 27 17 71 30 98 44 86 168 182 236 183 23 0 24 -2 18 -49z m139
-362 c29 -11 75 -40 101 -63 l48 -44 -53 -56 c-29 -31 -65 -81 -79 -113 -48
-105 -40 -245 21 -342 24 -37 92 -104 134 -131 24 -15 24 -15 6 -60 -46 -120
-178 -301 -245 -335 -44 -23 -127 -19 -200 11 -97 40 -168 42 -259 9 -166 -59
-201 -55 -289 33 -239 241 -335 658 -209 906 31 61 107 135 173 169 88 44 175
48 275 12 143 -51 141 -51 238 -17 48 18 105 36 127 41 53 13 145 4 211 -20z"/>
</g>
</svg>
